<svg xmlns="http://www.w3.org/2000/svg" fill="none" viewBox="0 0 32 32">
  <path fill="#fff" fill-rule="evenodd" d="M8 0a8 8 0 0 0-8 8v16a8 8 0 0 0 8 8h16a8 8 0 0 0 8-8V8a8 8 0 0 0-8-8H8Zm16.742 9.947c.135-1.533-1.484-.902-1.484-.902-1.2.497-2.435 1-3.685 1.51-3.86 1.575-7.848 3.202-11.245 4.803-1.844.676-.765 1.352-.765 1.352l2.924.902c1.348.406 2.068-.045 2.068-.045l6.296-4.283c2.248-1.533 1.709-.27 1.169.27l-4.721 4.51c-.72.63-.36 1.171-.045 1.442.891.787 3.084 2.226 4.043 2.855.25.164.416.273.453.302.225.18 1.44.991 2.249.811.81-.18.9-1.217.9-1.217l1.078-7.08c.162-1.225.347-2.402.495-3.345.14-.895.248-1.577.27-1.885Z" clip-rule="evenodd"/>
</svg>
